<svg width="25" height="24" viewBox="0 0 25 24" fill="none" xmlns="http://www.w3.org/2000/svg">
<g clip-path="url(#clip0_845_446)">
<path d="M5.95456 23.8817V11.582L3.07878 8.0923L0.5 6.15576V21.7111C0.5 22.9121 1.23359 23.8817 2.13641 23.8817H5.95456Z" fill="#4285F4"/>
<path d="M19.0454 23.8821H22.8636C23.7691 23.8821 24.5 22.9089 24.5 21.7115V6.15625L21.5791 8.37432L19.0454 11.5824V23.8821Z" fill="#34A853"/>
<path d="M5.95454 11.5823L5.56323 6.77643L5.95454 2.17676L12.5 8.68834L19.0454 2.17676L19.4831 6.52809L19.0454 11.5823L12.5 18.0939L5.95454 11.5823Z" fill="#EA4335"/>
<path d="M19.0454 2.17662V11.5821L24.5 6.1559V3.26185C24.5 0.577703 22.19 -0.952453 20.5728 0.657288L19.0454 2.17662Z" fill="#FBBC04"/>
<path d="M0.5 6.15596L3.00866 8.65171L5.95456 11.5822V2.17668L4.42719 0.657345C2.80719 -0.95252 0.5 0.577759 0.5 3.26178V6.15583V6.15596Z" fill="#C5221F"/>
</g>
<defs>
<clipPath id="clip0_845_446">
<rect width="24" height="24" fill="white" transform="translate(0.5)"/>
</clipPath>
</defs>
</svg>
