<svg width="25" height="24" viewBox="0 0 25 24" fill="none" xmlns="http://www.w3.org/2000/svg">
<path d="M21.9222 22.6668C19.3741 22.6668 16.8903 22.0987 14.471 20.9625C12.0508 19.8271 9.90761 18.3259 8.04134 16.4588C6.17428 14.5926 4.67305 12.4493 3.53764 10.0292C2.40144 7.60984 1.83334 5.12609 1.83334 2.57794C1.83334 2.22239 1.95186 1.92609 2.1889 1.68905C2.42594 1.45201 2.72223 1.3335 3.07779 1.3335H7.87779C8.15433 1.3335 8.40124 1.42238 8.61853 1.60016C8.83581 1.77794 8.96421 2.0051 9.00371 2.28164L9.77408 6.42979C9.81359 6.70634 9.80885 6.95799 9.75986 7.18475C9.71008 7.41231 9.59631 7.61498 9.41853 7.79275L6.57408 10.6965C7.40371 12.1187 8.44075 13.452 9.68519 14.6965C10.9296 15.9409 12.3025 17.0174 13.8037 17.9261L16.5889 15.1409C16.7667 14.9631 16.999 14.8296 17.2858 14.7403C17.5718 14.6518 17.8531 14.6273 18.1296 14.6668L22.2185 15.4965C22.4951 15.5557 22.7222 15.6889 22.9 15.8959C23.0778 16.1037 23.1667 16.3458 23.1667 16.6224V21.4224C23.1667 21.7779 23.0482 22.0742 22.8111 22.3113C22.5741 22.5483 22.2778 22.6668 21.9222 22.6668Z" fill="#F6F9FA"/>
</svg>
